<mxfile host="app.diagrams.net" modified="2023-04-03T14:34:28.707Z" agent="Mozilla/5.0 (Windows NT 10.0; Win64; x64) AppleWebKit/537.36 (KHTML, like Gecko) Chrome/111.0.0.0 Safari/537.36" version="21.1.4" etag="_bOEiIEeIrsadcVSy6xk" type="github">
  <diagram name="Page-1" id="_mgC4x9ZZrjibwNm_N24">
    <mxGraphModel>
      <root>
        <mxCell id="0" />
        <mxCell id="1" parent="0" />
      </root>
    </mxGraphModel>
  </diagram>
</mxfile>
